<?xml version="1.0" encoding="UTF-8" standalone="no"?>
<svg
   xmlns:dc="http://purl.org/dc/elements/1.1/"
   xmlns:cc="http://creativecommons.org/ns#"
   xmlns:rdf="http://www.w3.org/1999/02/22-rdf-syntax-ns#"
   xmlns:svg="http://www.w3.org/2000/svg"
   xmlns="http://www.w3.org/2000/svg"
   xmlns:sodipodi="http://sodipodi.sourceforge.net/DTD/sodipodi-0.dtd"
   xmlns:inkscape="http://www.inkscape.org/namespaces/inkscape"
   version="1.1"
   id="Layer_1"
   x="0px"
   y="0px"
   width="90px"
   height="109px"
   viewBox="-1 -1 92 111"
   enable-background="new 0 0 90 109"
   xml:space="preserve"
   inkscape:version="1.0.1 (3bc2e813f5, 2020-09-07, custom)"
   sodipodi:docname="tox_notify_filled_white-boarder.svg"><metadata
     id="metadata11"><rdf:RDF><cc:Work
         rdf:about=""><dc:format>image/svg+xml</dc:format><dc:type
           rdf:resource="http://purl.org/dc/dcmitype/StillImage" /><dc:title></dc:title></cc:Work></rdf:RDF></metadata><defs
     id="defs9" /><sodipodi:namedview
     pagecolor="#ffffff"
     bordercolor="#666666"
     borderopacity="1"
     objecttolerance="10"
     gridtolerance="10"
     guidetolerance="10"
     inkscape:pageopacity="0"
     inkscape:pageshadow="2"
     inkscape:window-width="1620"
     inkscape:window-height="785"
     id="namedview7"
     showgrid="false"
     inkscape:snap-bbox="false"
     inkscape:zoom="3.9293714"
     inkscape:cx="26.074552"
     inkscape:cy="62.347005"
     inkscape:window-x="211"
     inkscape:window-y="123"
     inkscape:window-maximized="0"
     inkscape:current-layer="Layer_1"
     inkscape:document-rotation="0" /><g
     id="g15"
     style="fill:#414141;fill-opacity:1;stroke:none;stroke-opacity:1"
     transform="matrix(1.0222222,0,0,1.0222222,-0.5319038,-0.92471446)"><path
       d="m 71.574,41.851 c 0,-4.685 0.074,-10.553 -0.033,-15.237 C 71.494,24.596 71.273,22.538 70.795,20.58 67.374,6.581 53.823,-2.125 39.594,0.45 26.998,2.729 17.621,13.968 17.621,26.786 v 13.865 1.17 c -0.475,0 -0.794,-10e-4 -1.116,0 H 5.023 C 2.25,41.821 0,44.07 0,46.844 v 56.875 c 0,2.773 2.25,5.023 5.023,5.023 h 79.451 c 2.775,0 5.024,-2.25 5.024,-5.023 V 46.844 c 0,-2.774 -2.249,-5.023 -5.024,-5.023 z M 52.107,95.118 H 37.332 c -2.322,0 -4.203,-1.914 -4.203,-4.274 0,-0.063 0.007,-0.127 0.009,-0.19 -0.005,0 -0.006,-1.021 -0.008,-2.041 -0.001,-1.129 0.511,-4.289 2.061,-6.574 1.641,-2.418 3.855,-3.99 6.257,-4.697 -3.166,-1.291 -5.396,-4.398 -5.396,-8.025 0,-4.789 3.88,-8.668 8.667,-8.668 4.789,0 8.667,3.879 8.667,8.668 0,3.719 -2.344,6.891 -5.637,8.12 2.332,0.753 4.537,2.313 6.273,4.707 1.621,2.235 2.285,5.343 2.285,6.47 v 2.043 c -0.006,0.062 0,0.125 0,0.189 10e-4,2.358 -1.88,4.272 -4.2,4.272 m 9.672,-62.014 c -1.562,4.611 -4.52,8.305 -7.61,11.912 -2.386,2.783 -5.19,5.125 -8.176,7.247 -0.144,0.103 -0.298,0.188 -0.685,0.427 1.781,-3.076 3.217,-5.998 3.633,-9.404 -4.234,1.002 -8.227,0.564 -12.093,-1.14 -6.862,-3.023 -10.963,-9.618 -10.263,-17.063 0.573,-6.127 3.94,-10.543 9.321,-13.395 8.667,-4.593 19.734,-1.655 24.689,6.516 2.887,4.758 2.932,9.741 1.184,14.9"
       id="path17"
       style="fill:#20170f;fill-opacity:0.88340622;stroke:#ffffff;stroke-width:1;stroke-miterlimit:4;stroke-dasharray:none;stroke-opacity:1" /></g><g
     id="g8"
     transform="matrix(0.11178935,0.05621943,-0.05621943,0.11178935,33.099054,30.444854)"
     style="fill:#ff0000;fill-opacity:1"><g
       id="g856"
       transform="rotate(6.0205215,242.4572,274.02859)"><path
         d="M 411,262.862 V 215 C 411,145.178 364.589,85.999 301,66.67 V 45 C 301,20.187 280.813,0 256,0 231.187,0 211,20.187 211,45 V 66.67 C 147.41,85.999 101,145.177 101,215 v 47.862 c 0,61.332 -23.378,119.488 -65.827,163.756 -4.16,4.338 -5.329,10.739 -2.971,16.267 C 34.56,448.413 39.99,452 46,452 h 136.509 c 6.968,34.192 37.272,60 73.491,60 36.22,0 66.522,-25.808 73.491,-60 H 466 c 6.01,0 11.439,-3.587 13.797,-9.115 2.358,-5.528 1.189,-11.929 -2.97,-16.267 C 434.378,382.35 411,324.193 411,262.862 Z M 241,45 c 0,-8.271 6.729,-15 15,-15 8.271,0 15,6.729 15,15 V 60.728 C 266.063,60.252 261.06,60 256,60 c -5.06,0 -10.063,0.252 -15,0.728 z m 15,437 c -19.555,0 -36.228,-12.541 -42.42,-30 h 84.84 c -6.192,17.459 -22.865,30 -42.42,30 z"
         id="path2"
         style="fill:#ff0000;fill-opacity:1;stroke-width:15.7177;stroke-miterlimit:4;stroke-dasharray:none"
         sodipodi:nodetypes="sscssscsscsscscsscsssscscssccs" /><path
         d="m 451,215 c 0,8.284 20.46223,6.16878 28.74623,6.16878 8.284,0 15,-6.716 15,-15 0,-60.1 -23.404,-116.602997 -65.901,-159.099997 -5.857,-5.857 -15.355,-5.858 -21.213,0 C 401.77423,52.926783 388.028,71.255 393.886,77.113 430.717,113.944 451,162.913 451,215 Z"
         id="path4"
         style="fill:#ff0000;fill-opacity:1;stroke-width:0;stroke-miterlimit:4;stroke-dasharray:none"
         sodipodi:nodetypes="sssssss" /><path
         d="m 34.486505,232.84691 c 8.265619,-0.55153 24.246402,5.428 23.69487,-2.83762 C 54.713594,178.03886 71.69233,127.82804 105.98846,88.626669 111.44345,82.391653 101.08433,59.787959 94.849316,54.332971 88.615317,48.877914 79.138391,49.510272 73.683403,55.745288 34.110061,100.97739 14.519779,158.91222 18.521117,218.87887 c 0.551532,8.26562 7.699768,14.51958 15.965388,13.96804 z"
         id="path6"
         style="fill:#ff0000;fill-opacity:1"
         sodipodi:nodetypes="ssccsss" /></g></g></svg>
