<?xml version="1.0" encoding="UTF-8" standalone="no"?>
<svg
   xmlns:dc="http://purl.org/dc/elements/1.1/"
   xmlns:cc="http://creativecommons.org/ns#"
   xmlns:rdf="http://www.w3.org/1999/02/22-rdf-syntax-ns#"
   xmlns:svg="http://www.w3.org/2000/svg"
   xmlns="http://www.w3.org/2000/svg"
   xmlns:sodipodi="http://sodipodi.sourceforge.net/DTD/sodipodi-0.dtd"
   xmlns:inkscape="http://www.inkscape.org/namespaces/inkscape"
   version="1.1"
   id="Layer_1"
   x="0px"
   y="0px"
   width="90px"
   height="109px"
   viewBox="-1 -1 92 111"
   enable-background="new 0 0 90 109"
   xml:space="preserve"
   inkscape:version="1.0.1 (3bc2e813f5, 2020-09-07, custom)"
   sodipodi:docname="trifa_notify.svg"><metadata
     id="metadata11"><rdf:RDF><cc:Work
         rdf:about=""><dc:format>image/svg+xml</dc:format><dc:type
           rdf:resource="http://purl.org/dc/dcmitype/StillImage" /><dc:title></dc:title></cc:Work></rdf:RDF></metadata><defs
     id="defs9" /><sodipodi:namedview
     pagecolor="#ffffff"
     bordercolor="#666666"
     borderopacity="1"
     objecttolerance="10"
     gridtolerance="10"
     guidetolerance="10"
     inkscape:pageopacity="0"
     inkscape:pageshadow="2"
     inkscape:window-width="1505"
     inkscape:window-height="767"
     id="namedview7"
     showgrid="false"
     inkscape:snap-bbox="false"
     inkscape:zoom="4.2907408"
     inkscape:cx="30.681243"
     inkscape:cy="44.092347"
     inkscape:window-x="327"
     inkscape:window-y="107"
     inkscape:window-maximized="0"
     inkscape:current-layer="Layer_1"
     inkscape:document-rotation="0" /><g
     id="g3"><path
       d="M71.574,41.851c0-4.685,0.074-10.553-0.033-15.237c-0.047-2.018-0.268-4.076-0.746-6.034   C67.374,6.581,53.823-2.125,39.594,0.45C26.998,2.729,17.621,13.968,17.621,26.786v13.865v1.17c-0.475,0-0.794-0.001-1.116,0H5.023   C2.25,41.821,0,44.07,0,46.844v56.875c0,2.773,2.25,5.023,5.023,5.023h79.451c2.775,0,5.024-2.25,5.024-5.023V46.844   c0-2.774-2.249-5.023-5.024-5.023L71.574,41.851z M52.107,95.118H37.332c-2.322,0-4.203-1.914-4.203-4.274   c0-0.063,0.007-0.127,0.009-0.19c-0.005,0-0.006-1.021-0.008-2.041c-0.001-1.129,0.511-4.289,2.061-6.574   c1.641-2.418,3.855-3.99,6.257-4.697c-3.166-1.291-5.396-4.398-5.396-8.025c0-4.789,3.88-8.668,8.667-8.668   c4.789,0,8.667,3.879,8.667,8.668c0,3.719-2.344,6.891-5.637,8.12c2.332,0.753,4.537,2.313,6.273,4.707   c1.621,2.235,2.285,5.343,2.285,6.47v2.043c-0.006,0.062,0,0.125,0,0.189C56.308,93.204,54.427,95.118,52.107,95.118    M61.779,33.104c-1.562,4.611-4.52,8.305-7.61,11.912c-2.386,2.783-5.19,5.125-8.176,7.247c-0.144,0.103-0.298,0.188-0.685,0.427   c1.781-3.076,3.217-5.998,3.633-9.404c-4.234,1.002-8.227,0.564-12.093-1.14c-6.862-3.023-10.963-9.618-10.263-17.063   c0.573-6.127,3.94-10.543,9.321-13.395c8.667-4.593,19.734-1.655,24.689,6.516C63.482,22.962,63.527,27.945,61.779,33.104"
       id="path5"
       style="opacity:1;fill:none;fill-opacity:0;stroke:#c4d2df;stroke-opacity:1;stroke-width:3.06666667;stroke-miterlimit:4;stroke-dasharray:none" /></g><g
     id="g8"
     transform="matrix(0.08190397,0.02568819,-0.02568819,0.08190397,54.218322,40.861369)"
     style="fill:#000000;fill-opacity:1"><path
       d="M 411,262.862 V 215 C 411,145.178 364.589,85.999 301,66.67 V 45 C 301,20.187 280.813,0 256,0 231.187,0 211,20.187 211,45 V 66.67 C 147.41,85.999 101,145.177 101,215 v 47.862 c 0,61.332 -23.378,119.488 -65.827,163.756 -4.16,4.338 -5.329,10.739 -2.971,16.267 C 34.56,448.413 39.99,452 46,452 h 136.509 c 6.968,34.192 37.272,60 73.491,60 36.22,0 66.522,-25.808 73.491,-60 H 466 c 6.01,0 11.439,-3.587 13.797,-9.115 2.358,-5.528 1.189,-11.929 -2.97,-16.267 C 434.378,382.35 411,324.193 411,262.862 Z M 241,45 c 0,-8.271 6.729,-15 15,-15 8.271,0 15,6.729 15,15 V 60.728 C 266.063,60.252 261.06,60 256,60 c -5.06,0 -10.063,0.252 -15,0.728 z m 15,437 c -19.555,0 -36.228,-12.541 -42.42,-30 h 84.84 c -6.192,17.459 -22.865,30 -42.42,30 z M 78.33,422 C 112.491,376.208 131,320.792 131,262.862 V 215 c 0,-68.925 56.075,-125 125,-125 68.925,0 125,56.075 125,125 v 47.862 c 0,57.93 18.509,113.346 52.671,159.138 z"
       id="path2"
       style="fill:#000000;fill-opacity:1;stroke-width:15.7177;stroke-miterlimit:4;stroke-dasharray:none" /><path
       d="m 451,215 c 0,8.284 6.716,15 15,15 8.284,0 15,-6.716 15,-15 0,-60.1 -23.404,-116.603 -65.901,-159.1 -5.857,-5.857 -15.355,-5.858 -21.213,0 -5.858,5.858 -5.858,15.355 0,21.213 C 430.717,113.944 451,162.913 451,215 Z"
       id="path4"
       style="fill:#000000;fill-opacity:1;stroke-width:0;stroke-miterlimit:4;stroke-dasharray:none" /><path
       d="m 46,230 c 8.284,0 15,-6.716 15,-15 0,-52.086 20.284,-101.055 57.114,-137.886 5.858,-5.858 5.858,-15.355 0,-21.213 -5.857,-5.858 -15.355,-5.858 -21.213,0 C 54.404,98.398 31,154.9 31,215 c 0,8.284 6.716,15 15,15 z"
       id="path6"
       style="fill:#000000;fill-opacity:1" /></g><g
     id="androd"
     transform="matrix(0.12358138,0,0,0.12358138,-9.7684667,36.427306)"><path
       fill="#9fbf3b"
       d="m 301.314,83.298 20.159,-29.272 c 1.197,-1.74 0.899,-4.024 -0.666,-5.104 -1.563,-1.074 -3.805,-0.543 -4.993,1.199 L 294.863,80.53 c -13.807,-5.439 -29.139,-8.47 -45.299,-8.47 -16.16,0 -31.496,3.028 -45.302,8.47 L 183.314,50.12 c -1.201,-1.74 -3.439,-2.273 -5.003,-1.199 -1.564,1.077 -1.861,3.362 -0.664,5.104 l 20.166,29.272 c -32.063,14.916 -54.548,43.26 -57.413,76.34 h 218.316 c -2.855,-33.08 -25.341,-61.423 -57.402,-76.339"
       id="path5-9" /><path
       fill="#ffffff"
       d="m 203.956,129.438 c -6.673,0 -12.08,-5.407 -12.08,-12.079 0,-6.671 5.404,-12.08 12.08,-12.08 6.668,0 12.073,5.407 12.073,12.08 0.001,6.671 -5.405,12.079 -12.073,12.079"
       id="path7" /><path
       fill="#ffffff"
       d="m 295.161,129.438 c -6.668,0 -12.074,-5.407 -12.074,-12.079 0,-6.673 5.406,-12.08 12.074,-12.08 6.675,0 12.079,5.409 12.079,12.08 0,6.671 -5.406,12.079 -12.079,12.079"
       id="path9" /><path
       fill="#9fbf3b"
       d="m 126.383,297.598 c 0,13.45 -10.904,24.354 -24.355,24.354 v 0 c -13.45,0 -24.354,-10.904 -24.354,-24.354 V 199.09 c 0,-13.45 10.904,-24.354 24.354,-24.354 v 0 c 13.451,0 24.355,10.904 24.355,24.354 z"
       id="path11" /><path
       fill="#9fbf3b"
       d="m 140.396,175.489 v 177.915 c 0,10.566 8.566,19.133 19.135,19.133 h 22.633 v 54.744 c 0,13.451 10.903,24.354 24.354,24.354 13.451,0 24.355,-10.903 24.355,-24.354 v -54.744 h 37.371 v 54.744 c 0,13.451 10.902,24.354 24.354,24.354 13.452,0 24.354,-10.903 24.354,-24.354 v -54.744 h 22.633 c 10.569,0 19.137,-8.562 19.137,-19.133 V 175.489 Z"
       id="path13" /><path
       fill="#9fbf3b"
       d="m 372.734,297.598 c 0,13.45 10.903,24.354 24.354,24.354 v 0 c 13.45,0 24.354,-10.904 24.354,-24.354 V 199.09 c 0,-13.45 -10.904,-24.354 -24.354,-24.354 v 0 c -13.451,0 -24.354,10.904 -24.354,24.354 z"
       id="path15" /></g></svg>
